<svg width="149" height="60" viewBox="0 0 149 60" fill="none" xmlns="http://www.w3.org/2000/svg">
<rect x="27.2725" y="28.2734" width="22.7273" height="22.7273" rx="1" fill="black"/>
<rect y="28.2734" width="22.7273" height="22.7273" rx="1" fill="#2563EB"/>
<rect x="27.2725" y="1" width="22.7273" height="22.7273" rx="1" fill="black"/>
<rect y="1" width="22.7273" height="22.7273" rx="1" fill="black"/>
<rect x="15.9092" y="16.9082" width="18.1818" height="18.1818" rx="5" fill="#2563EB"/>
<circle cx="11.3635" cy="12.3645" r="2.27273" fill="white"/>
<circle cx="34.0911" cy="7.81765" r="2.27273" fill="white"/>
<circle cx="43.1819" cy="7.81765" r="2.27273" fill="white"/>
<circle cx="43.1819" cy="16.9094" r="2.27273" fill="white"/>
<circle cx="34.0911" cy="16.9094" r="2.27273" fill="white"/>
<circle cx="38.636" cy="35.0911" r="2.27273" fill="white"/>
<circle cx="38.636" cy="44.1809" r="2.27273" fill="white"/>
<path d="M54.5803 20V1.81818H61.7536C63.1326 1.81818 64.3074 2.08156 65.2781 2.60831C66.2487 3.12914 66.9885 3.85417 67.4975 4.78338C68.0124 5.70668 68.2699 6.77202 68.2699 7.9794C68.2699 9.18679 68.0095 10.2521 67.4886 11.1754C66.9678 12.0987 66.2132 12.8178 65.2248 13.3327C64.2423 13.8477 63.0527 14.1051 61.6559 14.1051H57.0838V11.0245H61.0344C61.7743 11.0245 62.3839 10.8973 62.8633 10.6428C63.3486 10.3823 63.7096 10.0243 63.9464 9.56854C64.189 9.10689 64.3104 8.57718 64.3104 7.9794C64.3104 7.37571 64.189 6.84896 63.9464 6.39915C63.7096 5.94342 63.3486 5.59126 62.8633 5.34268C62.378 5.08819 61.7624 4.96094 61.0167 4.96094H58.4244V20H54.5803ZM54.5803 50V31.8182H61.7536C63.1326 31.8182 64.3074 32.0816 65.2781 32.6083C66.2487 33.1291 66.9885 33.8542 67.4975 34.7834C68.0124 35.7067 68.2699 36.772 68.2699 37.9794C68.2699 39.1868 68.0095 40.2521 67.4886 41.1754C66.9678 42.0987 66.2132 42.8178 65.2248 43.3327C64.2423 43.8477 63.0527 44.1051 61.6559 44.1051H57.0838V41.0245H61.0344C61.7743 41.0245 62.3839 40.8973 62.8633 40.6428C63.3486 40.3823 63.7096 40.0243 63.9464 39.5685C64.189 39.1069 64.3104 38.5772 64.3104 37.9794C64.3104 37.3757 64.189 36.849 63.9464 36.3991C63.7096 35.9434 63.3486 35.5913 62.8633 35.3427C62.378 35.0882 61.7624 34.9609 61.0167 34.9609H58.4244V50H54.5803Z" fill="#2563EB"/>
<path d="M70.6958 20V6.36364H74.4777V20H70.6958ZM72.5956 4.60582C72.0334 4.60582 71.551 4.41939 71.1485 4.04652C70.752 3.66773 70.5537 3.21496 70.5537 2.68821C70.5537 2.16738 70.752 1.72053 71.1485 1.34766C71.551 0.968868 72.0334 0.779473 72.5956 0.779473C73.1579 0.779473 73.6373 0.968868 74.0338 1.34766C74.4363 1.72053 74.6375 2.16738 74.6375 2.68821C74.6375 3.21496 74.4363 3.66773 74.0338 4.04652C73.6373 4.41939 73.1579 4.60582 72.5956 4.60582ZM80.6678 6.36364L83.1713 11.131L85.737 6.36364H89.6167L85.666 13.1818L89.7232 20H85.8613L83.1713 15.2859L80.5257 20H76.6195L80.6678 13.1818L76.7615 6.36364H80.6678ZM97.589 20.2663C96.1863 20.2663 94.9789 19.9822 93.9668 19.4141C92.9606 18.84 92.1853 18.0291 91.6408 16.9815C91.0963 15.928 90.824 14.6822 90.824 13.244C90.824 11.8413 91.0963 10.6102 91.6408 9.55078C92.1853 8.49136 92.9518 7.66572 93.9402 7.07386C94.9345 6.48201 96.1004 6.18608 97.438 6.18608C98.3377 6.18608 99.1751 6.33108 99.9505 6.62109C100.732 6.90518 101.412 7.33428 101.992 7.90838C102.578 8.48248 103.034 9.20455 103.36 10.0746C103.685 10.9387 103.848 11.9508 103.848 13.1108V14.1495H92.3333V11.8058H100.288C100.288 11.2612 100.169 10.7789 99.9327 10.3587C99.696 9.93845 99.3675 9.60997 98.9473 9.37322C98.533 9.13056 98.0506 9.00923 97.5002 9.00923C96.9261 9.00923 96.4171 9.1424 95.9732 9.40874C95.5352 9.66915 95.1919 10.0213 94.9434 10.4652C94.6948 10.9032 94.5675 11.3915 94.5616 11.93V14.1584C94.5616 14.8331 94.6859 15.4161 94.9345 15.9073C95.189 16.3986 95.5471 16.7773 96.0087 17.0437C96.4703 17.31 97.0178 17.4432 97.6511 17.4432C98.0713 17.4432 98.456 17.384 98.8052 17.2656C99.1544 17.1473 99.4533 16.9697 99.7019 16.733C99.9505 16.4962 100.14 16.2062 100.27 15.8629L103.768 16.0938C103.59 16.9342 103.226 17.6681 102.676 18.2955C102.131 18.9169 101.427 19.4022 100.563 19.7514C99.7048 20.0947 98.7135 20.2663 97.589 20.2663ZM110.098 1.81818V20H106.316V1.81818H110.098ZM70.6958 50V36.3636H74.3623V38.7429H74.5044C74.7529 37.8965 75.1702 37.2573 75.7561 36.8253C76.3421 36.3873 77.0168 36.1683 77.7803 36.1683C77.9697 36.1683 78.1739 36.1802 78.3928 36.2038C78.6118 36.2275 78.8042 36.2601 78.9699 36.3015V39.6573C78.7923 39.604 78.5467 39.5567 78.233 39.5153C77.9194 39.4738 77.6323 39.4531 77.3719 39.4531C76.8155 39.4531 76.3184 39.5745 75.8804 39.8171C75.4484 40.0539 75.1051 40.3853 74.8506 40.8114C74.602 41.2376 74.4777 41.7288 74.4777 42.2852V50H70.6958ZM86.4517 50.2663C85.0727 50.2663 83.8801 49.9734 82.8739 49.3874C81.8737 48.7956 81.1013 47.9729 80.5568 46.9194C80.0123 45.86 79.7401 44.6319 79.7401 43.2351C79.7401 41.8265 80.0123 40.5954 80.5568 39.5419C81.1013 38.4825 81.8737 37.6598 82.8739 37.0739C83.8801 36.482 85.0727 36.1861 86.4517 36.1861C87.8307 36.1861 89.0204 36.482 90.0206 37.0739C91.0268 37.6598 91.8021 38.4825 92.3466 39.5419C92.8911 40.5954 93.1634 41.8265 93.1634 43.2351C93.1634 44.6319 92.8911 45.86 92.3466 46.9194C91.8021 47.9729 91.0268 48.7956 90.0206 49.3874C89.0204 49.9734 87.8307 50.2663 86.4517 50.2663ZM86.4695 47.3366C87.0968 47.3366 87.6206 47.1591 88.0408 46.804C88.4611 46.4429 88.7777 45.9517 88.9908 45.3303C89.2098 44.7088 89.3192 44.0015 89.3192 43.2085C89.3192 42.4154 89.2098 41.7081 88.9908 41.0866C88.7777 40.4652 88.4611 39.974 88.0408 39.6129C87.6206 39.2519 87.0968 39.0714 86.4695 39.0714C85.8362 39.0714 85.3035 39.2519 84.8714 39.6129C84.4453 39.974 84.1228 40.4652 83.9038 41.0866C83.6907 41.7081 83.5842 42.4154 83.5842 43.2085C83.5842 44.0015 83.6907 44.7088 83.9038 45.3303C84.1228 45.9517 84.4453 46.4429 84.8714 46.804C85.3035 47.1591 85.8362 47.3366 86.4695 47.3366ZM95.6225 50V36.3636H99.2269V38.7695H99.3867C99.6708 37.9705 100.144 37.3402 100.807 36.8786C101.47 36.4169 102.263 36.1861 103.186 36.1861C104.122 36.1861 104.918 36.4199 105.575 36.8874C106.232 37.3491 106.67 37.9764 106.888 38.7695H107.031C107.309 37.9883 107.812 37.3639 108.54 36.8963C109.274 36.4228 110.141 36.1861 111.141 36.1861C112.413 36.1861 113.446 36.5915 114.239 37.4023C115.038 38.2073 115.438 39.3495 115.438 40.8292V50H111.665V41.5749C111.665 40.8174 111.464 40.2492 111.061 39.8704C110.659 39.4916 110.156 39.3022 109.552 39.3022C108.865 39.3022 108.33 39.5212 107.945 39.9592C107.56 40.3912 107.368 40.9624 107.368 41.6726V50H103.701V41.495C103.701 40.8262 103.509 40.2936 103.124 39.897C102.746 39.5005 102.245 39.3022 101.624 39.3022C101.204 39.3022 100.825 39.4087 100.488 39.6218C100.156 39.829 99.8928 40.1219 99.6974 40.5007C99.5021 40.8736 99.4045 41.3116 99.4045 41.8146V50H95.6225ZM118.425 55.1136V36.3636H122.154V38.6541H122.323C122.488 38.2872 122.728 37.9143 123.042 37.5355C123.361 37.1508 123.776 36.8312 124.285 36.5767C124.8 36.3163 125.439 36.1861 126.202 36.1861C127.197 36.1861 128.114 36.4465 128.954 36.9673C129.795 37.4822 130.467 38.2605 130.97 39.3022C131.473 40.3379 131.724 41.6371 131.724 43.1996C131.724 44.7206 131.479 46.005 130.987 47.0526C130.502 48.0942 129.839 48.8844 128.999 49.4229C128.164 49.9556 127.229 50.2219 126.193 50.2219C125.459 50.2219 124.835 50.1006 124.32 49.858C123.811 49.6153 123.394 49.3105 123.068 48.9435C122.743 48.5707 122.494 48.1948 122.323 47.8161H122.207V55.1136H118.425ZM122.127 43.1818C122.127 43.9927 122.24 44.6999 122.465 45.3036C122.69 45.9073 123.015 46.3778 123.441 46.7152C123.867 47.0466 124.385 47.2124 124.995 47.2124C125.61 47.2124 126.131 47.0437 126.557 46.7063C126.983 46.363 127.306 45.8896 127.525 45.2859C127.75 44.6763 127.862 43.9749 127.862 43.1818C127.862 42.3946 127.753 41.7022 127.534 41.1044C127.315 40.5066 126.992 40.0391 126.566 39.7017C126.14 39.3643 125.616 39.1957 124.995 39.1957C124.379 39.1957 123.858 39.3584 123.432 39.6839C123.012 40.0095 122.69 40.4711 122.465 41.0689C122.24 41.6667 122.127 42.371 122.127 43.1818ZM141.499 36.3636V39.2045H133.287V36.3636H141.499ZM135.151 33.0966H138.933V45.8097C138.933 46.1589 138.986 46.4311 139.093 46.6264C139.199 46.8158 139.347 46.949 139.537 47.0259C139.732 47.1029 139.957 47.1413 140.211 47.1413C140.389 47.1413 140.567 47.1265 140.744 47.0969C140.922 47.0614 141.058 47.0348 141.153 47.017L141.747 49.8313C141.558 49.8905 141.292 49.9586 140.948 50.0355C140.605 50.1184 140.188 50.1687 139.697 50.1864C138.785 50.2219 137.986 50.1006 137.3 49.8224C136.619 49.5443 136.089 49.1122 135.71 48.5263C135.332 47.9403 135.145 47.2005 135.151 46.3068V33.0966Z" fill="black"/>
</svg>
